<svg width="40" height="30" viewBox="0 0 40 30" fill="none" xmlns="http://www.w3.org/2000/svg">
<path d="M8.02897 24.1727C6.89084 24.1727 5.85618 23.2014 5.85618 22.0144C5.85618 20.8273 6.78738 19.8561 8.02897 19.8561C9.27056 19.8561 10.2018 20.8273 10.2018 22.0144C10.2018 23.2014 9.1671 24.1727 8.02897 24.1727ZM34.7232 12.4101C34.5163 10.6835 33.4816 9.28058 32.1366 8.20144L31.6192 7.76978L31.2054 8.30935C30.3777 9.28058 30.0673 11.0072 30.1707 12.3022C30.2742 13.2734 30.5846 14.2446 31.1019 15C30.688 15.2158 30.1707 15.4317 29.7569 15.6475C28.8257 15.9712 27.8945 16.0791 26.9633 16.0791H0.165546L0.0620797 16.7266C-0.144853 18.777 0.165546 20.9353 0.993275 22.8777L1.40714 23.6331V23.741C3.89033 28.0576 8.33937 30 13.2023 30C22.5142 30 30.1707 25.7914 33.792 16.7266C36.1718 16.8345 38.5515 16.187 39.6896 13.8129L40 13.2734L39.4827 12.9496C38.1376 12.0863 36.2752 11.9784 34.7232 12.4101ZM21.3761 10.6835H17.3409V14.8921H21.3761V10.6835ZM21.3761 5.39568H17.3409V9.60432H21.3761V5.39568ZM21.3761 0H17.3409V4.20863H21.3761V0ZM26.3425 10.6835H22.3073V14.8921H26.3425V10.6835ZM11.3399 10.6835H7.30471V14.8921H11.3399V10.6835ZM16.4097 10.6835H12.3745V14.8921H16.4097V10.6835ZM6.37351 10.6835H2.33833V14.8921H6.37351V10.6835ZM16.4097 5.39568H12.3745V9.60432H16.4097V5.39568ZM11.3399 5.39568H7.30471V9.60432H11.3399V5.39568Z" fill="white"/>
</svg>
