<svg width="19" height="30" viewBox="0 0 19 30" fill="none" xmlns="http://www.w3.org/2000/svg">
<path d="M4.74999 0C2.12799 0 0 2.24 0 4.99999C0 7.75794 2.12483 9.99665 4.74414 9.99998C2.12483 10.0033 0 12.242 0 15C0 17.7599 2.12799 19.9999 4.74999 19.9999H9.49997V9.99998V0H4.74999Z" fill="white"/>
<path d="M4.74999 30C7.37198 30 9.49997 27.76 9.49997 25V19.9999H4.74999C2.12799 19.9999 0 22.24 0 25C0 27.76 2.12799 30 4.74999 30Z" fill="white"/>
<path d="M9.49997 0H14.25C16.872 0 19 2.24 19 4.99999C19 7.75794 16.8752 9.99665 14.2558 9.99998C16.8752 10.0033 19 12.242 19 15C19 17.7599 16.872 19.9999 14.25 19.9999C11.628 19.9999 9.49999 17.7599 9.49999 15C9.49999 12.2431 11.6232 10.005 14.2411 9.99998H9.49997V0Z" fill="white"/>
</svg>
