<svg width="30" height="30" viewBox="0 0 30 30" fill="none" xmlns="http://www.w3.org/2000/svg">
<path d="M15 0C6.71234 0 0 6.81471 0 15.2288C0 22.3856 4.83702 28.3255 11.363 30C11.2877 29.8095 11.2506 29.5425 11.2506 29.2768V26.6873H9.37532C8.36298 26.6873 7.42468 26.231 7.01234 25.3925C6.52468 24.4788 6.44936 23.0699 5.21234 22.1938C4.83702 21.8892 5.13702 21.5847 5.54936 21.6222C6.33702 21.8503 6.97404 22.3843 7.57404 23.1827C8.17404 23.9824 8.43702 24.1729 9.5617 24.1729C10.0864 24.1729 10.9111 24.1353 11.6617 24.02C12.074 22.9533 12.7864 22.002 13.6494 21.5458C8.62468 20.9366 6.22468 18.4236 6.22468 14.9968C6.22468 13.5115 6.8617 12.1026 7.91234 10.8843C7.57532 9.70363 7.12468 7.26703 8.06298 6.31572C10.3136 6.31572 11.663 7.80101 12 8.18076C13.1247 7.79972 14.363 7.57161 15.637 7.57161C16.9494 7.57161 18.1494 7.79972 19.274 8.18076C19.6111 7.79972 20.9617 6.31572 23.2111 6.31572C24.1111 7.22945 23.6987 9.70363 23.3234 10.8843C24.374 12.0651 24.974 13.5115 24.974 14.9968C24.974 18.4236 22.6111 20.9366 17.6247 21.4693C19.0123 22.1925 19.9877 24.2481 19.9877 25.7709V29.2392C19.9877 29.3533 19.9506 29.4673 19.9506 29.5814C25.8 27.5258 30 21.8918 30 15.2288C30 6.81471 23.2877 0 15 0Z" fill="white"/>
</svg>
