<svg width="30" height="30" viewBox="0 0 30 30" fill="none" xmlns="http://www.w3.org/2000/svg">
<path fill-rule="evenodd" clip-rule="evenodd" d="M30 0H0V30H30V0ZM10.1838 23.6808L7.88812 25.0702C8.55269 26.4798 9.86167 27.6476 12.1169 27.6476C14.6142 27.6476 16.3259 26.3185 16.3259 23.3985V13.7729H13.5067V23.3586C13.5067 24.7682 12.9225 25.1305 11.9961 25.1305C11.0297 25.1305 10.6268 24.4661 10.1838 23.6808ZM20.1526 23.439L17.8571 24.7681C18.6827 26.3993 20.3742 27.6479 22.9921 27.6479C25.6704 27.6479 27.664 26.2586 27.664 23.721C27.664 21.3651 26.3148 20.318 23.9183 19.2908L23.2135 18.9888C22.0053 18.4652 21.4818 18.1227 21.4818 17.277C21.4818 16.5924 22.0053 16.0688 22.831 16.0688C23.6366 16.0688 24.16 16.4111 24.6434 17.277L26.8385 15.8672C25.9123 14.2361 24.6234 13.6117 22.8312 13.6117C20.3139 13.6117 18.7029 15.2228 18.7029 17.3373C18.7029 19.633 20.0521 20.7205 22.0861 21.5862L22.7907 21.8885C24.0796 22.4522 24.8448 22.7946 24.8448 23.7612C24.8448 24.5667 24.1 25.1508 22.9317 25.1508C21.5423 25.1508 20.7569 24.4259 20.1526 23.439Z" fill="white"/>
</svg>
