<svg width="32" height="30" viewBox="0 0 32 30" fill="none" xmlns="http://www.w3.org/2000/svg">
<path d="M24.4816 18.5628C24.3263 18.6164 24.1668 18.6682 24.0043 18.7184C23.6446 17.5312 23.1592 16.2686 22.5653 14.9644C23.1321 13.691 23.5987 12.4447 23.9484 11.265C24.239 11.3529 24.5213 11.4454 24.7932 11.5431C27.423 12.4869 29.0271 13.8827 29.0271 14.9581C29.0271 16.1036 27.2945 17.5908 24.4816 18.5628Z" fill="white"/>
<path d="M23.3145 20.9744C23.5988 22.4723 23.6395 23.8267 23.4511 24.8854C23.2818 25.8367 22.9414 26.471 22.5206 26.725C21.625 27.2656 19.7096 26.5629 17.6442 24.7095C17.4074 24.4971 17.1688 24.2702 16.9296 24.0302C17.7304 23.1169 18.5306 22.0552 19.3117 20.8762C20.6856 20.7491 21.9836 20.5412 23.1607 20.2575C23.2185 20.5015 23.2701 20.7406 23.3145 20.9744Z" fill="white"/>
<path d="M11.5109 26.6316C10.6359 26.9538 9.93896 26.963 9.51776 26.7098C8.62126 26.1708 8.24872 24.0895 8.75697 21.2981C8.8174 20.9682 8.8866 20.6401 8.96449 20.3142C10.1285 20.5827 11.417 20.7758 12.7942 20.8923C13.5804 22.046 14.4038 23.1064 15.2337 24.0351C15.0573 24.2129 14.8768 24.3863 14.6922 24.5549C13.5896 25.56 12.4846 26.2729 11.5109 26.6316Z" fill="white"/>
<path d="M7.41159 18.5557C6.02584 18.0618 4.88145 17.42 4.09702 16.7196C3.3922 16.0901 3.03626 15.4652 3.03626 14.9581C3.03626 13.8792 4.5791 12.5028 7.15225 11.5673C7.47522 11.4504 7.8014 11.3434 8.13037 11.2464C8.48606 12.4526 8.95254 13.7136 9.51549 14.9889C8.94525 16.2832 8.47209 17.5643 8.11314 18.7846C7.87753 18.7143 7.64361 18.638 7.41159 18.5557Z" fill="white"/>
<path d="M8.78577 8.80238C8.25162 5.95613 8.60629 3.80915 9.49889 3.27041C10.4497 2.69651 12.552 3.51486 14.7678 5.56637C14.9094 5.69751 15.0517 5.83482 15.1942 5.97685C14.3686 6.9013 13.5527 7.95374 12.7733 9.10074C11.4368 9.22992 10.1573 9.43739 8.98109 9.71529C8.90864 9.4127 8.84351 9.10839 8.78577 8.80238Z" fill="white"/>
<path d="M21.0443 11.9587C20.7665 11.4583 20.4784 10.9642 20.1801 10.4767C21.0869 10.5961 21.9556 10.7547 22.7714 10.949C22.5265 11.7675 22.2213 12.6233 21.8618 13.5007C21.5992 12.981 21.3266 12.4669 21.0443 11.9587Z" fill="white"/>
<path d="M16.0453 6.88149C16.6052 7.51401 17.166 8.22036 17.7177 8.98664C16.5987 8.93151 15.4778 8.93124 14.3588 8.98586C14.911 8.22665 15.4765 7.52135 16.0453 6.88149Z" fill="white"/>
<path d="M11.0142 11.9673C10.7354 12.4715 10.4679 12.9825 10.212 13.4998C9.85847 12.6254 9.55599 11.7657 9.30898 10.9356C10.1198 10.7464 10.9845 10.5917 11.8854 10.4744C11.5838 10.9648 11.2933 11.4626 11.0142 11.9673Z" fill="white"/>
<path d="M11.9113 19.5322C10.9806 19.4239 10.1028 19.2771 9.29225 19.0931C9.54316 18.2483 9.85231 17.3701 10.2134 16.477C10.4704 16.9946 10.739 17.5059 11.0191 18.0104C11.3049 18.525 11.6023 19.0324 11.9113 19.5322Z" fill="white"/>
<path d="M16.0789 23.1241C15.5035 22.4767 14.9296 21.7606 14.369 20.9904C14.9131 21.0127 15.4679 21.024 16.0317 21.024C16.611 21.024 17.1836 21.0105 17.7472 20.9842C17.1938 21.7685 16.635 22.4856 16.0789 23.1241Z" fill="white"/>
<path d="M21.8734 16.4315C22.2532 17.3343 22.5734 18.2077 22.8277 19.0383C22.0037 19.2343 21.1141 19.3922 20.1767 19.5095C20.4771 19.0129 20.768 18.5102 21.0492 18.0016C21.3351 17.4847 21.6099 16.9612 21.8734 16.4315Z" fill="white"/>
<path fill-rule="evenodd" clip-rule="evenodd" d="M19.9975 17.3692C19.567 18.149 19.1123 18.914 18.6342 19.6629C17.791 19.7257 16.9196 19.7581 16.0317 19.7581C15.1474 19.7581 14.2871 19.7294 13.4587 19.6734C12.9681 18.9262 12.5048 18.1599 12.0698 17.3761C11.6368 16.5966 11.2324 15.8001 10.8573 14.9885C11.2314 14.1767 11.6346 13.3798 12.0661 12.5996C12.4975 11.8192 12.9572 11.0564 13.4441 10.3124C14.2893 10.2458 15.1558 10.2109 16.0318 10.2109C16.9117 10.2109 17.7794 10.246 18.6243 10.3132C19.1063 11.056 19.5631 11.8164 19.9936 12.5929C20.4266 13.3714 20.8352 14.1643 21.2188 14.9705C20.8392 15.785 20.4317 16.585 19.9975 17.3692ZM18.5694 14.9581C18.5694 13.4968 17.4333 12.312 16.0317 12.312C14.6303 12.312 13.4941 13.4968 13.4941 14.9581C13.4941 16.4196 14.6303 17.6044 16.0317 17.6044C17.4333 17.6044 18.5694 16.4196 18.5694 14.9581Z" fill="white"/>
<path d="M22.502 3.23277C23.4536 3.80508 23.8237 6.11285 23.2258 9.1393C23.1866 9.33645 23.144 9.53285 23.098 9.7284C21.919 9.44473 20.6387 9.23359 19.2982 9.10244C18.5173 7.94299 17.7082 6.88871 16.896 5.9762C17.1088 5.76224 17.3267 5.55383 17.5495 5.35116C19.6476 3.44719 21.6085 2.69546 22.502 3.23277Z" fill="white"/>
<path fill-rule="evenodd" clip-rule="evenodd" d="M6.08016 21.1444C2.35985 19.8184 0 17.466 0 14.9461C0 12.4946 2.48537 10.3169 6.08016 9.01003C5.33484 5.03802 5.91779 1.83741 7.96082 0.604245C10.0797 -0.674688 13.0007 0.186284 16.0469 3.00644C18.9749 0.349429 21.9251 -0.722294 23.97 0.507328C26.0911 1.78272 26.7875 4.84982 25.9656 9.0377C29.6359 10.3552 32 12.4846 32 14.9461C32 17.4992 29.8325 19.5051 25.9574 20.8409C26.7209 24.8627 26.0848 28.2192 23.9933 29.4817C21.9583 30.71 19.042 29.691 16.1565 27.1017C13.1962 29.8 10.0773 30.6715 7.98384 29.4125C5.9471 28.1877 5.33723 25.0443 6.08016 21.1444ZM24.2736 10.0454C24.5809 10.1375 24.8859 10.2378 25.1884 10.346C28.2578 11.4477 30.2412 13.1736 30.2412 14.9581C30.2412 16.8192 28.1216 18.6388 24.8636 19.7643C24.6914 19.8238 24.5149 19.881 24.3351 19.9364C24.3992 20.2055 24.4564 20.4697 24.5055 20.7285C25.1487 24.1161 24.6534 26.9004 23.129 27.8206C21.6531 28.7114 19.2677 27.8363 16.8524 25.6691C16.5899 25.433 16.3337 25.1893 16.0842 24.9382C15.8861 25.138 15.6883 25.3285 15.4912 25.5082C12.9976 27.781 10.4369 28.7239 8.9112 27.8065C7.43401 26.918 6.96979 24.3262 7.56418 21.062C7.62913 20.7072 7.70358 20.3544 7.78743 20.004C7.52932 19.9272 7.27308 19.8437 7.01896 19.7535C3.88499 18.6367 1.82233 16.7946 1.82233 14.9581C1.82233 13.18 3.74387 11.4657 6.75258 10.3719C7.08889 10.2497 7.44042 10.1348 7.80441 10.027C7.72643 9.70176 7.6564 9.37449 7.59437 9.04552C6.97092 5.72361 7.40961 3.06883 8.8907 2.17481C10.4353 1.2425 13.0077 2.24367 15.5741 4.61976C15.7337 4.76788 15.8907 4.91907 16.045 5.07326C16.2753 4.84138 16.5113 4.61561 16.7526 4.39615C19.2013 2.17416 21.626 1.2446 23.1084 2.13613C24.6547 3.06568 25.1074 5.88951 24.4149 9.39476C24.3717 9.61252 24.3245 9.82943 24.2736 10.0454Z" fill="white"/>
</svg>
