<svg width="20" height="20" viewBox="0 0 20 20" fill="none" xmlns="http://www.w3.org/2000/svg">
<path d="M1.22615 8.71006L13.1395 2.77372C14.3155 2.15535 18.3036 0.176567 18.3036 0.176567C18.3036 0.176567 20.1443 -0.68915 19.9909 1.4133C19.9398 2.27902 19.5307 5.30903 19.1217 8.58639L17.8435 18.2948C17.8435 18.2948 17.7412 19.717 16.872 19.9644C16.0028 20.2117 14.5711 19.0987 14.3155 18.8513C14.111 18.6658 10.4807 15.8831 9.15133 14.5227C8.79341 14.1517 8.38437 13.4097 9.20246 12.5439C11.0431 10.5033 13.2417 7.96802 14.5711 6.36026C15.1847 5.61821 15.7982 3.88678 13.2417 5.98924L6.03238 11.8637C6.03238 11.8637 5.2143 12.4821 3.6804 11.9256C2.14649 11.369 0.356936 10.627 0.356936 10.627C0.356936 10.627 -0.870188 9.69945 1.22615 8.71006Z" fill="white"/>
</svg>
