<svg width="30" height="30" viewBox="0 0 30 30" fill="none" xmlns="http://www.w3.org/2000/svg">
<path fill-rule="evenodd" clip-rule="evenodd" d="M0 0V30H30V0H0ZM6.57749 16.275V15.0525L6.59999 15.06V13.83L11.85 13.8075C14.7375 13.8075 17.115 13.815 17.115 13.8375C17.145 13.8525 17.145 14.4 17.145 15.075V16.275H13.245V27.3751H10.4775V16.275H6.57749ZM25.98 14.8725C25.455 14.325 24.87 13.98 24.105 13.8L24.12 13.785C23.6025 13.65 22.365 13.605 21.84 13.71C20.22 14.01 19.0875 15.06 18.765 16.56C18.66 16.9875 18.6975 18.0525 18.81 18.4875C18.96 18.99 19.2825 19.5975 19.635 19.9875C20.25 20.6325 20.91 21.0525 22.4625 21.7125C23.8125 22.3125 24.2925 22.5825 24.5325 22.9125C24.705 23.175 24.7575 23.3325 24.7575 23.6775C24.7575 24.0525 24.6375 24.3225 24.36 24.5776C23.715 25.1626 22.41 25.2301 21.435 24.7276C21.1125 24.5476 20.5575 24.0226 20.31 23.6325L20.115 23.37L19.2675 23.865L18.1425 24.5175L17.8575 24.6975C17.8275 24.7501 18.36 25.5526 18.6375 25.8526C19.3425 26.6251 20.49 27.2251 21.69 27.4501C22.2525 27.5476 23.4525 27.5626 23.9775 27.4726C25.65 27.1951 26.82 26.3476 27.3 25.0951C27.7275 23.9475 27.585 22.4175 26.9475 21.4425C26.385 20.5725 25.455 19.965 23.31 19.0425C22.1475 18.5325 21.7725 18.285 21.57 17.8725C21.48 17.6775 21.435 17.5425 21.435 17.3025C21.435 16.515 22.035 16.0425 22.935 16.1025C23.5575 16.1475 23.955 16.3875 24.345 16.9425C24.465 17.1375 24.585 17.265 24.615 17.2425C25.4025 16.755 26.7 15.8775 26.7 15.8325C26.67 15.6975 26.2575 15.1725 25.98 14.8725Z" fill="white"/>
</svg>
